<svg xmlns="http://www.w3.org/2000/svg" version="1.1" xmlns:xlink="http://www.w3.org/1999/xlink" xmlns:svgjs="http://svgjs.com/svgjs" width="1440" height="560" preserveAspectRatio="none" viewBox="0 0 1440 560">
  <g mask="url(&quot;#SvgjsMask1000&quot;)" fill="none">
    <path d="M25.93 140C25.93 100.94 8.23 96.94 0 52.5C-4.73 26.94 -17.5 8.75 0 0C35 -17.5 52.7 -2.28 105 0C122.7 0.77 124.9 -2.81 140 6.09C212.4 48.77 228.96 105.03 280 103.16C311.86 101.99 272.04 24.87 305.79 0C342.04 -26.71 362.89 0 420 0C490 0 490 0 560 0C630 0 630 0 700 0C765.41 0 772.82 -10.54 830.82 0C842.82 2.18 828.08 25.45 840 25.45C902.67 25.45 910 12.72 980 0C980 0 980 0 980 0C1050 0 1050 0 1120 0C1190 0 1190 0 1260 0C1330 0 1330 0 1400 0C1470 0 1505 -35 1540 0C1575 35 1540 70 1540 140C1540 205 1573.7 239.62 1540 270C1503.7 302.72 1461.79 291.03 1400 266.2C1321.79 234.78 1319.45 153.69 1260 157.5C1211.76 160.59 1184.62 229.9 1184.62 280C1184.62 309.07 1227.22 290.84 1260 315.85C1318.96 360.84 1313.53 368.49 1368.1 420C1383.53 434.57 1382.61 448 1400 448C1423.27 448 1430.33 440.38 1449.41 420C1500.33 365.59 1514.86 298.42 1540 298.42C1560.16 298.42 1540 359.21 1540 420C1540 469.15 1547.68 471.11 1540 518.3C1536.29 541.11 1537.4 553.99 1517.21 560C1467.4 574.84 1458.61 560 1400 560C1340.7 560 1336.31 569.64 1281.41 560C1266.31 557.35 1274.53 535.41 1260 535.41C1215.93 535.41 1212.58 551.5 1164.21 560C1142.58 563.8 1142.11 560 1120 560C1050 560 1050 560 980 560C910 560 910 560 840 560C770 560 770 560 700 560C630 560 630 560 560 560C490 560 490 560 420 560C350 560 350 560 280 560C210 560 210 560 140 560C70 560 35 595 0 560C-35 525 0 490 0 420C0 350 0 350 0 280C0 218.64 -10.34 213.11 0 157.28C2.63 143.11 25.93 153.33 25.93 140" stroke="rgba(220, 20, 60, 1)" stroke-width="2"></path>
    <path d="M420 163.33C386.31 163.33 324.55 234.98 324.55 280C324.55 310.25 377.4 313.87 420 313.87C437.78 313.87 445.3 299.68 445.3 280C445.3 224.41 446.68 163.33 420 163.33" stroke="rgba(220, 20, 60, 1)" stroke-width="2"></path>
    <path d="M700 226.15C684.94 226.15 682.05 253.71 682.05 280C682.05 298.59 686.43 315.9 700 315.9C721.33 315.9 751.85 300.53 751.85 280C751.85 255.66 719.84 226.15 700 226.15" stroke="rgba(220, 20, 60, 1)" stroke-width="2"></path>
    <path d="M90.74 140C119.48 115.71 113.02 82.17 140 82.17C171.76 82.17 194.96 101.44 208.21 140C228.96 200.36 187.1 218.86 208 280C222.99 323.86 235.99 331.25 280 350C341.99 376.41 362.27 389.8 420 370.32C466.01 354.8 459.27 328.5 487.47 280C526.23 213.34 571.41 189.86 553.91 140C537.68 93.76 476.97 127.27 420 87.8C375.94 57.27 351.84 27.21 351.84 0C351.84 -16.69 385.92 0 420 0C490 0 490 0 560 0C630 0 630 0 700 0C736.72 0 773.44 -19.56 773.44 0C773.44 35.07 750.23 74.01 700 109.27C650.51 144.01 588.38 100.92 574 140C556.97 186.28 604.27 210.63 637.18 280C667.27 343.45 654.61 400.42 700 405.64C756.02 412.08 763.08 324.6 840 303.33C903.08 285.88 909.82 327.03 980 328.2C1049.82 329.36 1051.78 300.61 1120 308C1191.78 315.78 1196.12 323.43 1260 358.54C1298.02 379.43 1291.16 390.08 1323.8 420C1361.16 454.25 1362.64 452.64 1400 486.89C1438.99 522.64 1476.51 538.78 1476.51 560C1476.51 575.34 1438.26 560 1400 560C1361.3 560 1353.96 576.11 1322.59 560C1283.96 540.16 1300.89 499.53 1260 488.11C1199.59 471.23 1183.89 481.34 1120 503.4C1079.79 517.28 1090.47 544.36 1051.79 560C1020.47 572.66 1015.89 560 980 560C910 560 910 560 840 560C781.13 560 761.6 585.03 722.27 560C691.6 540.48 714.92 470.91 700 470.91C684.19 470.91 695.19 538.12 660.8 560C625.19 582.66 610.4 560 560 560C490 560 490 560 420 560C350 560 350 560 280 560C210 560 210 560 140 560C130.87 560 130.02 563.6 121.74 560C60.02 533.17 38.49 543.4 0 499.13C-22.38 473.4 0 459.57 0 420C0 350 0 350 0 280C0 240.25 -19.13 230.01 0 200.49C26.24 160.01 49.48 174.87 90.74 140" stroke="rgba(220, 20, 60, 1)" stroke-width="2"></path>
    <path d="M988.24 140C967.75 81.98 989.23 43.32 1030 0C1055.11 -26.68 1075 0 1120 0C1190 0 1190 0 1260 0C1318.95 0 1321.69 -7.5 1377.89 0C1391.69 1.84 1386.22 18.67 1400 18.67C1467.27 18.67 1504.85 -30.47 1540 0C1574.85 30.2 1540 70 1540 140C1540 180 1565.45 206.02 1540 220C1495.45 244.47 1462.28 238.61 1400 216.9C1347.52 198.61 1353.03 180.7 1310.49 140C1283.03 113.73 1286.11 82.96 1260 82.96C1232.35 82.96 1228.35 108.82 1202.96 140C1158.35 194.77 1168.06 254.87 1120 254.87C1060.7 254.87 1012.75 209.42 988.24 140" stroke="rgba(220, 20, 60, 1)" stroke-width="2"></path>
    <path d="M1518.04 420C1518.04 405.84 1533.91 390.53 1540 390.53C1544.89 390.53 1540 405.26 1540 420C1540 431.91 1544.65 443.83 1540 443.83C1533.67 443.83 1518.04 432.49 1518.04 420" stroke="rgba(220, 20, 60, 1)" stroke-width="2"></path>
    <path d="M420 28.47C403.51 23.72 397.89 8.82 397.89 0C397.89 -5.41 408.94 0 420 0C490 0 490 0 560 0C630 0 630 0 700 0C708.04 0 716.07 -4.28 716.07 0C716.07 7.67 713.17 19.96 700 23.9C635.14 43.3 630.16 45.52 560 46.67C490.16 47.81 484.57 47.06 420 28.47" stroke="rgba(220, 20, 60, 1)" stroke-width="2"></path>
    <path d="M1091.18 140C1075.46 75.1 1068.78 54.48 1080 0C1083.19 -15.52 1100 0 1120 0C1190 0 1190 0 1260 0C1272.89 0 1285.79 -4.08 1285.79 0C1285.79 4.99 1271.42 7.32 1260 18.15C1197.6 77.32 1197.48 77.71 1138.15 140C1127.48 151.2 1130.51 165.13 1120 165.13C1107.03 165.13 1095.46 157.67 1091.18 140" stroke="rgba(220, 20, 60, 1)" stroke-width="2"></path>
    <path d="M1367.87 140C1367.87 120.04 1376.04 103.75 1400 96.44C1462.1 77.5 1489.06 71.65 1540 87.5C1559.06 93.43 1540 113.75 1540 140C1540 155 1552.35 167.56 1540 170C1482.35 181.37 1466.07 179.13 1400 167.61C1380.01 164.13 1367.87 155.62 1367.87 140" stroke="rgba(220, 20, 60, 1)" stroke-width="2"></path>
    <path d="M0 243.7C37.91 243.7 99.77 245.59 101.38 280C103.89 333.74 56.41 352.03 8.24 420C5.72 423.55 3.06 423.04 0 423.04C-1.06 423.04 0 421.52 0 420C0 350 0 350 0 280C0 261.85 -12.78 243.7 0 243.7" stroke="rgba(220, 20, 60, 1)" stroke-width="2"></path>
    <path d="M529.64 280C546.57 250.98 544.44 220 560 220C575.77 220 582.87 247.63 592.31 280C612.04 347.63 627.38 354.07 618.33 420C611.22 471.79 590.46 468.59 560 515.45C544.96 538.59 551.12 552.43 527.33 560C481.12 574.71 473.66 560 420 560C360.37 560 300.74 585.36 300.74 560C300.74 523.44 358.8 496.23 420 436.15C430.1 426.23 435.26 431.49 443.33 420C490.08 353.41 488.23 350.98 529.64 280" stroke="rgba(220, 20, 60, 1)" stroke-width="2"></path>
    <path d="M781.67 420C788.16 388.75 806.09 382.14 840 376.25C905.25 364.92 910.37 377.67 980 385.57C1050.37 393.55 1049.6 404.07 1120 408C1189.6 411.89 1193.16 396.19 1260 401.22C1272.91 402.19 1279.49 410.36 1279.49 420C1279.49 430.16 1273.45 440.06 1260 440.81C1193.71 444.53 1183.39 409.88 1120 428.94C1043.39 451.97 1048.72 475.29 980 525C958.13 540.82 963.57 553.81 938.82 560C893.57 571.31 889.41 560 840 560C820.91 560 808.02 574.88 801.82 560C778.85 504.88 769.07 480.62 781.67 420" stroke="rgba(220, 20, 60, 1)" stroke-width="2"></path>
    <path d="M1363.76 560C1363.76 550.09 1381.93 525.78 1400 525.78C1417.96 525.78 1435.81 550.07 1435.81 560C1435.81 567.18 1417.9 560 1400 560C1381.88 560 1363.76 567.2 1363.76 560" stroke="rgba(220, 20, 60, 1)" stroke-width="2"></path>
  </g>
  <defs>
    <mask id="SvgjsMask1000">
      <rect width="1440" height="560" fill="#ffffff"></rect>
    </mask>
  </defs>
</svg>