<svg xmlns="http://www.w3.org/2000/svg" viewBox="-322 0 1765 1765"><g fill="white"><path d="M342 522q0-78 35-122 19-23 46-37l2-1 25-9 3-1q67-17 135 0l2 1 26 9 2 1q27 14 45 37 18 22 27 54l1 1 6 30v1q8 79-18 133-41 82-159 82a19 19 0 010-39q95 0 125-60 21-44 14-111v1l-6-29 1 1q-7-24-21-40-13-17-33-27l2 1-26-10 3 1q-59-15-117 0l2-1-25 10 1-1q-20 10-33 27-27 34-27 98a19 19 0 11-38 0zM201 701q-94 0-124 60-21 44-14 111v-1l6 29-1-1q7 24 20 40 13 17 33 27l-1-1 25 10-2-1q58 15 117 0l-2 1 25-10-2 1q20-10 33-27 28-34 28-98a19 19 0 1138 0q0 78-36 122-18 23-45 37l-2 1-26 9-2 1q-68 17-135 0l-2-1-26-9-2-1q-27-14-46-37-18-23-27-54v-1l-6-30v-2q-9-78 17-132h1q40-82 158-82a19 19 0 010 39z"/><path d="M200 662l34-2-3 1 30-6-3 1 25-10-3 2 21-14-3 2 18-17-3 3 14-22-2 4 10-26-1 3 6-29v2l2-33a19 19 0 0138 2l-2 34v2l-6 30-1 3-10 25-2 4-14 22-2 3-18 17-3 3-22 14-3 2-26 9-3 1-29 6-3 1-34 2a19 19 0 11-2-39zM342 840l2-34v-2l6-30 1-3 10-26 1-3 14-22 3-3 18-18 3-2 21-14 4-2 25-10h4l29-6 3-1 33-2a19 19 0 012 39l-33 2 3-1-30 6 3-1-25 10 3-2-22 14 4-3-18 18 2-3-13 22 1-4-9 26v-3l-5 29v-2l-2 33a19 19 0 01-38-2z"/><path d="M220 522v319a19 19 0 11-38 0V522a19 19 0 0138 0z"/><path d="M201 503h319a19 19 0 110 38H201a19 19 0 010-38z"/><path d="M539 522v319a19 19 0 11-38 0V522a19 19 0 1138 0z"/><path d="M201 822h319a19 19 0 110 38H201a19 19 0 010-38z"/><path d="M220 681v160a19 19 0 11-38 0V681a19 19 0 1138 0z"/></g></svg>