<?xml version="1.0" encoding="utf-8"?>
<svg xmlns="http://www.w3.org/2000/svg" xmlns:xlink="http://www.w3.org/1999/xlink" version= "1.1" width="1365px" height="1365px" viewBox="-322 0 1365 1365">
<g id="layer1">
<g>
<g style="fill:rgb(255,255,255); fill-opacity:1.0; stroke-linejoin: miter">
<path d="M341.7411,521.97614L341.7411,521.97614Q341.7411,444.38657,377.43427,399.7697L377.43433,399.76962Q395.8094,376.8009,423.19293,363.109C423.74298,362.83398,424.30606,362.58563,424.88007,362.36487L424.88007,362.36487L450.47678,352.52014C451.2038,352.2405,451.94724,352.00558,452.7029,351.81665L452.7029,351.81665Q520.3472,334.90543,587.99164,351.81665C588.7473,352.00555,589.4908,352.24054,590.2178,352.52014L590.2178,352.52014L615.81445,362.36487C616.3885,362.58563,616.95154,362.83395,617.5016,363.109L617.5016,363.109Q644.8851,376.80087,663.26013,399.76962L663.26025,399.7697Q681.41095,422.45825,690.3419,453.71637C690.4836,454.21225,690.60516,454.7136,690.7063,455.2193L690.7063,455.2193L696.61316,484.75397C696.7253,485.31464,696.8122,485.88004,696.87366,486.44852L696.87366,486.44852Q705.3352,564.7175,679.3498,618.8536C679.30536,618.9461,679.2601,619.0386,679.2142,619.1304L679.2142,619.1304Q638.4883,700.58246,520.3472,700.58246C509.7881,700.58246,501.2282,692.0226,501.2282,681.46344C501.2282,670.9043,509.7881,662.3444,520.3472,662.3444L520.3472,662.3444Q614.85583,662.3444,645.013,602.0299L644.8774,602.3067Q666.1476,557.994,658.8572,490.55844L659.1177,492.253L653.2108,462.71832L653.5752,464.22125Q646.7542,440.34802,633.40125,423.65668L633.40137,423.65677Q620.27277,407.24612,600.4009,397.31006L602.088,398.0542L576.49133,388.20947L578.71747,388.91296Q520.3472,374.32028,461.97708,388.91296L464.20322,388.20947L438.6065,398.0542L440.29364,397.31006Q420.42175,407.2461,407.29315,423.65677L407.2932,423.65668Q379.97913,457.7996,379.97913,521.97614C379.97913,532.5353,371.41925,541.09515,360.8601,541.09515C350.30096,541.09515,341.7411,532.5353,341.7411,521.97614 Z"/>
</g>
<g style="fill:rgb(255,255,255); fill-opacity:1.0; stroke-linejoin: miter">
<path d="M201.37296,700.58246L201.37296,700.58246Q106.86439,700.58246,76.70709,760.89703L76.84276,760.6201Q55.572647,804.9328,62.862984,872.36847L62.602463,870.6739L68.509384,900.20856L68.14503,898.7056Q74.966,922.5789,88.31889,939.2702L88.31881,939.2701Q101.447464,955.6808,121.31931,965.6168L119.63222,964.8727L145.22888,974.7174L143.00272,974.0139Q201.37292,988.60657,259.74313,974.0139L257.517,974.7174L283.1137,964.8727L281.4266,965.6168Q301.29852,955.6808,314.42706,939.27014L314.427,939.2702Q341.7411,905.1273,341.7411,840.95074C341.7411,830.3916,350.30096,821.8317,360.8601,821.8317C371.41925,821.8317,379.97913,830.3916,379.97913,840.95074L379.97913,840.95074Q379.97913,918.5403,344.28595,963.15717L344.2859,963.1572Q325.91083,986.126,298.52725,999.8179C297.97717,1000.0929,297.41415,1000.34125,296.84015,1000.562L296.84015,1000.562L271.24344,1010.40674C270.51645,1010.68634,269.77295,1010.9213,269.0173,1011.1102L269.0173,1011.1102Q201.37296,1028.0215,133.72858,1011.1102C132.97289,1010.9213,132.22945,1010.68634,131.50241,1010.40674L131.50241,1010.40674L105.90575,1000.562C105.331726,1000.34125,104.76874,1000.0929,104.21865,999.8179L104.21865,999.8179Q76.83501,986.126,58.46,963.1573L58.459915,963.15717Q40.309204,940.46857,31.378286,909.2105C31.236616,908.71466,31.115065,908.21326,31.013931,907.7076L31.013931,907.7076L25.10701,878.1729C24.994871,877.61224,24.907948,877.0468,24.846489,876.47833L24.846489,876.47833Q16.384995,798.2094,42.370316,744.07336C42.41474,743.98083,42.460068,743.8883,42.50598,743.79645L42.50598,743.79645Q83.23199,662.3444,201.37296,662.3444C211.93208,662.3444,220.49196,670.9043,220.49196,681.46344C220.49196,692.0226,211.93208,700.58246,201.37296,700.58246 Z"/>
</g>
<g style="fill:rgb(255,255,255); fill-opacity:1.0; stroke-linejoin: miter">
<path d="M200.25024,662.37744L200.25024,662.37744L233.72285,660.40845L231.096,660.7467L260.63065,654.8397L257.517,655.7428L283.1137,645.8981L279.71234,647.6128L301.3711,633.82983L298.11655,636.44055L315.83734,618.71985L313.22647,621.9746L327.0093,600.3157L325.29468,603.7168L335.13956,578.1201L334.23648,581.2339L340.14343,551.6992L339.80515,554.3261L341.7741,520.85345C342.39417,510.31253,351.4419,502.27008,361.98282,502.89014C372.52374,503.5102,380.56616,512.5579,379.9461,523.0988L379.9461,523.0988L377.97714,556.5715C377.92523,557.45386,377.8122,558.3316,377.63885,559.19836L377.63885,559.19836L371.7319,588.73303C371.5196,589.7947,371.21747,590.8363,370.82883,591.8468L370.82883,591.8468L360.98395,617.4435C360.52704,618.6315,359.95264,619.7708,359.26932,620.8446L359.26932,620.8446L345.48648,642.50354C344.73755,643.6805,343.86203,644.7719,342.8756,645.7583L342.8756,645.7583L325.15482,663.479C324.16846,664.4654,323.07712,665.3408,321.90027,666.0897L321.90027,666.0897L300.24152,679.8727C299.16763,680.5561,298.0282,681.1305,296.84015,681.5874L296.84015,681.5874L271.24344,691.4321C270.233,691.82074,269.19138,692.12286,268.1298,692.3352L268.1298,692.3352L238.59514,698.2422C237.7284,698.4155,236.85066,698.52856,235.96828,698.58044L235.96828,698.58044L202.49567,700.54944C191.95476,701.1695,182.907,693.1271,182.28694,682.5862C181.66689,672.0453,189.70934,662.9975,200.25024,662.37744 Z"/>
</g>
<g style="fill:rgb(255,255,255); fill-opacity:1.0; stroke-linejoin: miter">
<path d="M341.7741,839.82806L341.7741,839.82806L343.74307,806.3554C343.79498,805.473,343.90802,804.5953,344.08136,803.7285L344.08136,803.7285L349.9883,774.19385C350.20062,773.1322,350.50275,772.0906,350.8914,771.0801L350.8914,771.0801L360.73627,745.4834C361.19318,744.2954,361.76758,743.15607,362.4509,742.0823L362.4509,742.0823L376.23373,720.42334C376.98267,719.2464,377.8582,718.15497,378.8446,717.1686L378.8446,717.1686L396.5654,699.4479C397.55176,698.4615,398.6431,697.58606,399.81995,696.83716L399.81995,696.83716L421.4787,683.0542C422.55258,682.3708,423.69202,681.7964,424.88007,681.3395L424.88007,681.3395L450.47678,671.49475C451.4872,671.10614,452.52884,670.804,453.59042,670.5917L453.59042,670.5917L483.1251,664.6847C483.99182,664.51135,484.86957,664.3983,485.75195,664.34644L485.75195,664.34644L519.2245,662.37744C529.7654,661.7574,538.8132,669.7998,539.4332,680.3407C540.0533,690.8816,532.01086,699.9294,521.47,700.54944L521.47,700.54944L487.99738,702.51843L490.62424,702.1802L461.08957,708.08716L464.20322,707.1841L438.6065,717.0288L442.00787,715.3141L420.34912,729.09705L423.60367,726.4863L405.88287,744.20703L408.49374,740.9523L394.7109,762.6112L396.42554,759.2101L386.58066,784.80676L387.48373,781.693L381.57678,811.22766L381.91507,808.60077L379.9461,842.0734C379.32605,852.6143,370.27832,860.6568,359.7374,860.03674C349.19647,859.4167,341.15405,850.36896,341.7741,839.82806 Z"/>
</g>
<g style="fill:rgb(255,255,255); fill-opacity:1.0; stroke-linejoin: miter">
<path d="M220.49196,521.97614L220.49196,521.97614L220.49203,840.95074C220.49203,851.5099,211.93216,860.06976,201.37303,860.06976C190.8139,860.06976,182.25403,851.5099,182.25403,840.95074L182.25403,840.95074L182.25395,521.97614C182.25395,511.417,190.81383,502.85712,201.37296,502.85712C211.93208,502.85712,220.49196,511.417,220.49196,521.97614 Z"/>
</g>
<g style="fill:rgb(255,255,255); fill-opacity:1.0; stroke-linejoin: miter">
<path d="M201.37302,502.85712L201.37302,502.85712L520.34717,502.8581C530.9063,502.85812,539.4662,511.41803,539.4661,521.9772C539.46606,532.5363,530.9062,541.0962,520.34705,541.0961L520.34705,541.0961L201.3729,541.09515C190.81377,541.0951,182.25392,532.5352,182.25395,521.9761C182.25398,511.41693,190.81389,502.8571,201.37302,502.85712 Z"/>
</g>
<g style="fill:rgb(255,255,255); fill-opacity:1.0; stroke-linejoin: miter">
<path d="M539.4661,521.97614L539.4661,521.97614L539.4661,840.95074C539.4661,851.5099,530.90625,860.06976,520.3471,860.06976C509.78796,860.06976,501.2281,851.5099,501.2281,840.95074L501.2281,840.95074L501.2281,521.97614C501.2281,511.417,509.78796,502.85712,520.3471,502.85712C530.90625,502.85712,539.4661,511.417,539.4661,521.97614 Z"/>
</g>
<g style="fill:rgb(255,255,255); fill-opacity:1.0; stroke-linejoin: miter">
<path d="M201.3731,821.8317L201.3731,821.8317L520.34717,821.8327C530.9063,821.83276,539.4662,830.39264,539.4661,840.9518C539.46606,851.5109,530.9062,860.0708,520.34705,860.07074L520.34705,860.07074L201.37297,860.06976C190.81384,860.0697,182.254,851.5098,182.25403,840.9507C182.25406,830.39154,190.81396,821.83167,201.3731,821.8317 Z"/>
</g>
<g style="fill:rgb(255,255,255); fill-opacity:1.0; stroke-linejoin: miter">
<path d="M220.49196,681.46344L220.49196,681.46344L220.49196,840.95074C220.49196,851.5099,211.93208,860.06976,201.37296,860.06976C190.81383,860.06976,182.25395,851.5099,182.25395,840.95074L182.25395,840.95074L182.25395,681.46344C182.25395,670.9043,190.81383,662.3444,201.37296,662.3444C211.93208,662.3444,220.49196,670.9043,220.49196,681.46344 Z"/>
</g>
</g>
</g>
</svg>